<?xml version="1.0" encoding="UTF-8" ?>
<!DOCTYPE svg PUBLIC "-//W3C//DTD SVG 1.1//EN" "http://www.w3.org/Graphics/SVG/1.1/DTD/svg11.dtd">
<svg width="1519pt" height="422pt" viewBox="0 0 1519 422" version="1.1" preserveAspectRatio="none" xmlns="http://www.w3.org/2000/svg">
<path fill="#fe6600" stroke="#fe6600" stroke-width="0.09375" opacity="1.00" d=" M 0.00 0.00 L 0.14 0.00 C 0.10 0.03 0.03 0.10 0.00 0.14 L 0.00 0.00 Z" />
<path fill="#fe6600" stroke="#fe6600" stroke-width="0.09375" opacity="1.00" d=" M 69.44 33.51 C 78.08 32.64 87.72 32.63 95.15 37.81 C 102.92 42.11 106.54 51.10 108.44 59.30 C 109.53 70.84 109.22 82.46 109.03 94.03 C 109.52 102.36 106.03 110.46 100.72 116.73 C 87.43 131.65 59.96 129.94 49.15 112.83 C 43.40 104.40 44.32 93.67 43.87 84.01 C 44.06 73.03 42.66 61.43 47.08 51.02 C 50.50 41.64 59.56 34.67 69.44 33.51 Z" />
<path fill="#fe6600" stroke="#fe6600" stroke-width="0.09375" opacity="1.00" d=" M 146.43 33.49 C 161.79 29.63 179.98 37.96 184.40 53.64 C 187.27 68.54 186.06 83.92 185.83 99.00 C 184.79 113.18 172.50 125.81 158.16 126.37 C 142.77 129.24 125.75 119.00 122.72 103.33 C 121.35 88.42 121.58 73.36 122.57 58.43 C 123.87 46.07 134.16 35.36 146.43 33.49 Z" />
<path fill="#fe6600" stroke="#fe6600" stroke-width="0.09375" opacity="1.00" d=" M 224.43 33.49 C 232.70 32.44 241.69 32.39 248.93 37.12 C 257.56 41.21 262.40 50.40 263.32 59.61 C 264.56 72.98 264.38 86.46 263.70 99.86 C 262.33 113.71 250.19 125.78 236.15 126.36 C 220.78 128.98 203.48 119.28 200.63 103.37 C 199.45 89.95 199.78 76.43 200.07 62.98 C 199.44 48.92 210.60 35.61 224.43 33.49 Z" />
<path fill="#fe6600" stroke="#fe6600" stroke-width="0.09375" opacity="1.00" d=" M 302.43 33.47 C 314.06 31.53 327.52 34.17 335.10 43.89 C 343.44 54.34 341.91 68.51 342.20 81.00 C 341.65 91.01 343.60 102.04 337.97 111.01 C 327.89 130.57 297.11 132.01 283.95 115.05 C 280.67 110.33 277.83 104.94 278.20 98.98 C 277.98 84.36 276.80 69.52 279.16 55.03 C 281.38 43.76 291.32 35.27 302.43 33.47 Z" />
<path fill="#fe6600" stroke="#fe6600" stroke-width="0.09375" opacity="1.00" d=" M 379.43 33.47 C 393.86 30.19 410.49 36.44 416.41 50.63 C 420.95 64.93 418.62 80.27 419.05 95.03 C 419.91 107.17 412.38 119.53 401.01 124.01 C 388.00 129.11 371.29 127.29 362.07 115.91 C 358.13 111.43 355.58 105.91 355.35 99.88 C 354.52 86.65 354.63 73.37 355.31 60.14 C 356.24 47.20 366.56 35.53 379.43 33.47 Z" />
<path fill="#990000" stroke="#990000" stroke-width="0.09375" opacity="1.00" d=" M 1208.40 34.50 C 1221.58 33.47 1234.83 33.84 1248.05 33.92 C 1250.99 33.93 1253.58 35.50 1256.14 36.76 C 1255.80 115.18 1256.11 193.61 1256.00 272.03 C 1256.94 281.25 1251.41 290.00 1243.79 294.77 C 1230.49 303.17 1214.65 306.12 1199.32 308.32 C 1179.47 310.83 1159.05 312.44 1139.41 307.57 C 1121.77 303.99 1104.84 295.77 1092.28 282.73 C 1075.93 265.25 1069.36 240.52 1069.99 217.00 C 1069.98 182.53 1086.80 146.92 1117.09 129.12 C 1142.87 114.07 1176.16 112.68 1202.94 126.04 C 1203.30 97.70 1202.59 69.34 1203.12 41.00 C 1203.20 38.00 1205.34 35.00 1208.40 34.50 M 1146.23 151.22 C 1130.10 165.36 1124.38 187.44 1123.20 208.05 C 1123.16 227.08 1126.33 247.36 1138.10 262.92 C 1149.10 278.65 1170.74 285.63 1188.95 279.82 C 1197.91 278.27 1203.68 268.75 1202.94 260.03 C 1203.19 223.33 1202.84 186.62 1203.06 149.92 C 1186.45 138.00 1162.13 138.17 1146.23 151.22 Z" />
<path fill="#990000" stroke="#990000" stroke-width="0.09375" opacity="1.00" d=" M 522.45 117.56 C 551.47 114.98 582.54 123.58 603.35 144.64 C 633.74 173.91 640.87 223.94 620.79 260.88 C 610.88 280.03 593.64 294.77 573.74 302.81 C 551.61 310.90 527.07 313.44 504.00 307.93 C 482.99 304.05 463.58 292.47 449.91 276.08 C 424.89 245.35 421.66 199.25 440.80 164.78 C 449.10 150.90 460.75 138.81 474.95 130.93 C 489.38 122.61 505.96 118.80 522.45 117.56 M 520.44 144.51 C 513.35 145.18 507.19 149.39 502.14 154.14 C 492.52 163.75 487.73 177.02 485.17 190.12 C 481.36 216.15 485.76 244.72 501.98 266.03 C 512.38 280.28 533.43 285.29 549.02 277.01 C 563.35 269.73 570.35 253.80 574.01 238.95 C 579.48 219.38 576.64 198.42 570.71 179.30 C 566.65 166.63 558.93 154.52 546.96 148.05 C 538.96 143.40 529.35 143.40 520.44 144.51 Z" />
<path fill="#990000" stroke="#990000" stroke-width="0.09375" opacity="1.00" d=" M 718.06 118.14 C 741.53 115.65 766.09 117.34 787.82 127.20 C 800.69 133.02 811.90 142.43 819.93 154.04 C 828.25 166.59 832.29 181.54 833.44 196.45 C 835.81 218.54 830.39 240.91 820.65 260.69 C 811.85 276.72 799.29 291.27 782.90 299.85 C 766.13 309.37 746.04 311.16 727.16 309.68 C 717.99 308.44 709.29 305.03 700.95 301.19 C 700.87 328.14 701.21 355.09 701.01 382.04 C 701.18 385.86 698.36 389.46 694.38 389.43 C 680.10 389.99 665.43 391.52 651.33 388.64 C 646.63 385.95 648.67 379.33 647.96 375.03 C 648.25 300.07 647.57 225.09 648.28 150.13 C 648.42 140.41 656.78 133.76 664.68 129.72 C 681.46 122.20 699.94 120.02 718.06 118.14 M 707.89 147.91 C 699.58 154.05 701.23 165.06 700.93 173.99 C 701.11 207.24 700.82 240.49 701.12 273.74 C 712.85 279.02 725.90 283.87 738.89 280.88 C 752.10 279.07 763.16 269.69 768.99 258.00 C 780.16 237.88 781.23 213.71 777.48 191.44 C 775.38 179.40 770.42 167.83 762.56 158.42 C 749.39 143.45 725.61 138.45 707.89 147.91 Z" />
<path fill="#990000" stroke="#990000" stroke-width="0.09375" opacity="1.00" d=" M 944.40 117.43 C 977.71 114.43 1013.29 127.01 1033.89 154.13 C 1057.28 185.13 1060.95 230.30 1040.89 263.92 C 1027.30 288.48 1001.28 304.52 973.88 308.76 C 940.09 314.99 901.48 307.51 877.15 281.85 C 843.31 247.62 840.90 187.13 872.74 150.76 C 890.21 129.66 917.57 119.05 944.40 117.43 M 942.43 144.48 C 931.38 146.16 921.94 154.03 916.52 163.57 C 909.15 176.71 905.26 191.92 905.88 207.01 C 905.49 227.68 910.98 248.89 923.37 265.66 C 928.48 271.74 935.14 276.67 942.64 279.39 C 955.75 283.49 971.37 280.06 980.74 269.76 C 990.47 258.97 995.16 244.66 997.48 230.58 C 999.94 217.49 998.50 204.05 995.85 191.12 C 993.54 178.87 988.22 167.22 980.58 157.41 C 971.37 146.45 956.42 141.71 942.43 144.48 Z" />
<path fill="#990000" stroke="#990000" stroke-width="0.09375" opacity="1.00" d=" M 1361.45 117.56 C 1386.82 114.61 1413.75 119.32 1435.01 133.98 C 1461.47 151.13 1475.90 182.99 1475.96 214.00 C 1477.10 250.44 1454.74 286.68 1420.93 300.86 C 1389.15 314.27 1351.09 313.71 1320.38 297.57 C 1310.12 291.65 1300.39 284.29 1293.28 274.74 C 1266.55 241.17 1265.15 189.46 1290.97 154.99 C 1307.33 132.76 1334.19 119.62 1361.45 117.56 M 1367.42 143.49 C 1354.12 144.67 1342.57 154.12 1337.00 165.99 C 1324.78 190.47 1325.43 219.97 1334.63 245.33 C 1338.50 254.98 1343.51 264.61 1351.74 271.27 C 1365.56 284.41 1390.42 283.50 1402.80 268.80 C 1413.42 258.22 1417.28 243.23 1419.95 228.97 C 1422.22 212.27 1419.90 195.12 1414.88 179.11 C 1411.24 169.33 1406.33 159.58 1398.28 152.71 C 1390.02 145.30 1378.39 141.84 1367.42 143.49 Z" />
</svg>
